<svg width="191" height="44" viewBox="0 0 191 44" fill="none" xmlns="http://www.w3.org/2000/svg">
<path d="M17.5668 3.13755C19.8051 -1.04585 25.8028 -1.04585 28.0411 3.13755L44.8668 34.5846C47.8277 40.1186 41.2989 45.8653 36.1855 42.2259L26.2481 35.1533C24.1864 33.6859 21.4215 33.6859 19.3598 35.1533L9.42247 42.2259C4.30897 45.8653 -2.21984 40.1186 0.741167 34.5846L17.5668 3.13755Z" fill="url(#paint0_linear_3_27)"/>
<mask id="mask0_3_27" style="mask-type:alpha" maskUnits="userSpaceOnUse" x="0" y="0" width="46" height="44">
<path d="M17.5668 3.13755C19.8051 -1.04585 25.8028 -1.04585 28.0411 3.13755L44.8668 34.5846C47.8277 40.1186 41.2989 45.8653 36.1855 42.2259L26.2481 35.1533C24.1864 33.6859 21.4215 33.6859 19.3598 35.1533L9.42247 42.2259C4.30897 45.8653 -2.21984 40.1186 0.741167 34.5846L17.5668 3.13755Z" fill="url(#paint1_linear_3_27)"/>
</mask>
<g mask="url(#mask0_3_27)">
<path d="M-5.70691 18.1325C-5.70691 13.7264 -3.08412 9.74324 0.963471 8.00244C5.24487 6.16094 10.2216 7.20994 13.3956 10.6227L13.7239 10.9758C18.2111 15.8007 25.7939 15.9757 30.4989 11.363L31.5622 10.3205C34.8941 7.05394 39.8571 6.09764 44.1644 7.89234C48.4939 9.69624 51.3141 13.9265 51.3141 18.6168V39.5303H-5.70691V18.1325Z" fill="url(#paint2_linear_3_27)"/>
<path d="M-5.70691 25.1118C-5.70691 20.7058 -3.08412 16.7226 0.963471 14.9817C5.24487 13.1402 10.2216 14.1892 13.3956 17.602L13.7239 17.9551C18.2111 22.78 25.7939 22.9551 30.4989 18.3423L31.5622 17.2999C34.8941 14.0332 39.8571 13.0769 44.1644 14.8716C48.4939 16.6756 51.3141 20.9059 51.3141 25.5962V46.5096H-5.70691V25.1118Z" fill="url(#paint3_linear_3_27)"/>
<path d="M-5.70691 32.0908C-5.70691 27.6847 -3.08412 23.7016 0.963471 21.9607C5.24487 20.1192 10.2216 21.1682 13.3956 24.581L13.7239 24.9341C18.2111 29.759 25.7939 29.934 30.4989 25.3213L31.5622 24.2789C34.8941 21.0122 39.8571 20.0559 44.1644 21.8506C48.4939 23.6546 51.3141 27.8848 51.3141 32.5752V53.4886H-5.70691V32.0908Z" fill="url(#paint4_linear_3_27)"/>
</g>
<path d="M68.14 29.54L62.26 15.38H58.94L53 29.54H56.72L57.76 26.76H63.24L64.34 29.54H68.14ZM62.3 24.02H58.74L60.54 19.16L62.3 24.02ZM82.7848 15.38H79.0048L75.7448 25.42H75.6648L72.3848 15.38H68.5448L73.9048 29.54H77.3248L82.7848 15.38ZM98.332 29.54L92.452 15.38H89.132L83.1922 29.54H86.912L87.952 26.76H93.432L94.532 29.54H98.332ZM92.492 24.02H88.932L90.732 19.16L92.492 24.02ZM110.023 29.54V26.56H104.542V15.38H101.102V29.54H110.023ZM126.63 29.54L120.75 15.38H117.43L111.49 29.54H115.21L116.25 26.76H121.73L122.83 29.54H126.63ZM120.79 24.02H117.23L119.03 19.16L120.79 24.02ZM141.049 24.2V15.38H137.629V23.92C137.629 25.44 136.909 26.84 134.969 26.84C133.049 26.84 132.309 25.44 132.309 23.92V15.38H128.909V24.2C128.909 27.6 131.229 29.92 134.949 29.92C138.649 29.92 141.049 27.6 141.049 24.2ZM158.294 29.54V15.38H154.974L155.054 24.62H154.994L149.314 15.38H145.414V29.54H148.734L148.654 20.28H148.714L154.414 29.54H158.294ZM175.275 27.58L172.895 25.34C172.295 26.18 171.235 26.78 169.895 26.78C167.535 26.78 165.875 25.02 165.875 22.44C165.875 19.94 167.575 18.1 169.955 18.1C171.035 18.1 172.175 18.52 172.815 19.4L175.135 17.08C173.955 15.72 171.815 15 169.835 15C165.515 15 162.155 17.9 162.155 22.44C162.155 26.88 165.415 29.92 169.775 29.92C172.155 29.92 174.035 29.02 175.275 27.58ZM190.701 29.54V15.38H187.281V20.74H181.761V15.38H178.341V29.54H181.761V23.62H187.281V29.54H190.701Z" fill="white"/>
<defs>
<linearGradient id="paint0_linear_3_27" x1="59.4271" y1="-6.65069" x2="-3.4927" y2="65.8641" gradientUnits="userSpaceOnUse">
<stop stop-color="white"/>
<stop offset="1" stop-color="#CECECE"/>
</linearGradient>
<linearGradient id="paint1_linear_3_27" x1="59.4271" y1="-6.65069" x2="-3.4927" y2="65.8641" gradientUnits="userSpaceOnUse">
<stop stop-color="#FF6746"/>
<stop offset="1" stop-color="#FF0546"/>
</linearGradient>
<linearGradient id="paint2_linear_3_27" x1="22.8036" y1="10.8713" x2="22.8036" y2="39.5303" gradientUnits="userSpaceOnUse">
<stop stop-color="white"/>
<stop offset="1" stop-color="#EFEFEF"/>
</linearGradient>
<linearGradient id="paint3_linear_3_27" x1="22.8036" y1="17.8507" x2="22.8036" y2="46.5096" gradientUnits="userSpaceOnUse">
<stop stop-color="white"/>
<stop offset="1" stop-color="#D9D9D9"/>
</linearGradient>
<linearGradient id="paint4_linear_3_27" x1="22.8036" y1="24.8296" x2="22.8036" y2="53.4886" gradientUnits="userSpaceOnUse">
<stop stop-color="white"/>
<stop offset="1" stop-color="#E1E1E1"/>
</linearGradient>
</defs>
</svg>
